<svg width="187" height="62" viewBox="0 0 187 62" fill="none" xmlns="http://www.w3.org/2000/svg">
<path d="M48.3235 0H14.4071C6.45029 0 0 6.37517 0 14.2393V47.7607C0 55.6248 6.45029 62 14.4071 62H48.3235C56.2803 62 62.7306 55.6248 62.7306 47.7607V14.2393C62.7306 6.37517 56.2803 0 48.3235 0Z" fill="url(#paint0_linear_1361_2368)"/>
<path d="M23.3147 32.58H12.1016C11.6773 32.58 11.2705 32.4134 10.9705 32.1169C10.6705 31.8204 10.502 31.4183 10.502 30.999C10.502 30.5797 10.6705 30.1775 10.9705 29.881C11.2705 29.5845 11.6773 29.418 12.1016 29.418H23.3408C23.7651 29.418 24.1719 29.5845 24.4719 29.881C24.7719 30.1775 24.9404 30.5797 24.9404 30.999C24.9404 31.4183 24.7719 31.8204 24.4719 32.1169C24.1719 32.4134 23.7651 32.58 23.3408 32.58H23.3147Z" fill="white"/>
<path d="M37.9466 47.9356C37.5251 47.9356 37.1072 47.8603 36.7128 47.7134C36.0514 47.4727 35.4809 47.0367 35.0788 46.4646C34.6767 45.8924 34.4624 45.2119 34.465 44.5152V34.6211H31.088C30.4223 34.6203 29.7708 34.4303 29.2112 34.0737C28.6517 33.7171 28.2077 33.2091 27.9322 32.61C27.6567 32.011 27.5613 31.3463 27.6575 30.6952C27.7536 30.0441 28.0371 29.434 28.4742 28.9377L40.6858 15.2254C41.1495 14.7021 41.7637 14.331 42.4464 14.1616C43.1291 13.9921 43.8478 14.0325 44.5067 14.2773C45.1655 14.522 45.7332 14.9595 46.134 15.5314C46.5348 16.1033 46.7496 16.7824 46.7498 17.4781V27.3722H50.1267C50.7935 27.3709 51.4464 27.5595 52.0074 27.9157C52.5683 28.2719 53.0134 28.7804 53.2893 29.3802C53.5652 29.9801 53.6601 30.6459 53.5628 31.2978C53.4655 31.9497 53.18 32.56 52.7405 33.0556L40.5342 46.7627C40.2128 47.1297 39.8155 47.4243 39.3691 47.6266C38.9227 47.8289 38.4376 47.9343 37.9466 47.9356ZM43.2682 17.2249C43.2341 17.2261 43.2008 17.2351 43.1708 17.2513C43.1409 17.2674 43.1152 17.2902 43.0957 17.3179L30.8841 31.0251C30.8503 31.0626 30.8291 31.1097 30.8235 31.1596C30.8179 31.2096 30.8281 31.2601 30.8528 31.3041C30.8689 31.3521 30.9008 31.3934 30.9434 31.4215C30.9861 31.4496 31.0369 31.4628 31.088 31.4591H36.0699C36.4941 31.4591 36.901 31.6256 37.201 31.9221C37.501 32.2186 37.6695 32.6208 37.6695 33.0401V44.5152C37.6661 44.5677 37.6808 44.6198 37.7111 44.663C37.7415 44.7061 37.7858 44.7378 37.8368 44.7529C37.8843 44.7765 37.9387 44.7827 37.9904 44.7704C38.042 44.7581 38.0876 44.7281 38.1191 44.6858L50.3306 30.9734C50.367 30.9376 50.3911 30.8914 50.3995 30.8414C50.4079 30.7913 50.4003 30.7399 50.3777 30.6944C50.357 30.6466 50.3217 30.6064 50.2767 30.5795C50.2316 30.5526 50.1792 30.5404 50.1267 30.5446H45.1449C44.7202 30.5432 44.3133 30.3755 44.0135 30.0782C43.7136 29.7809 43.5453 29.3782 43.5453 28.9584V17.4832C43.5487 17.4308 43.534 17.3787 43.5036 17.3355C43.4732 17.2924 43.4289 17.2607 43.378 17.2456C43.3422 17.2348 43.3054 17.2279 43.2682 17.2249Z" fill="white"/>
<path d="M29.7658 19.8332H18.4742C18.0651 19.8101 17.6805 19.6332 17.3991 19.3387C17.1177 19.0443 16.9609 18.6546 16.9609 18.2496C16.9609 17.8446 17.1177 17.4549 17.3991 17.1605C17.6805 16.866 18.0651 16.6891 18.4742 16.666H29.7658C30.1749 16.6891 30.5595 16.866 30.8409 17.1605C31.1223 17.4549 31.279 17.8446 31.279 18.2496C31.279 18.6546 31.1223 19.0443 30.8409 19.3387C30.5595 19.6332 30.1749 19.8101 29.7658 19.8332Z" fill="white"/>
<path d="M28.1499 45.3339H18.4737C18.0494 45.3339 17.6425 45.1673 17.3425 44.8708C17.0425 44.5743 16.874 44.1722 16.874 43.7529C16.874 43.3336 17.0425 42.9314 17.3425 42.6349C17.6425 42.3384 18.0494 42.1719 18.4737 42.1719H28.1499C28.5741 42.1719 28.981 42.3384 29.281 42.6349C29.5809 42.9314 29.7495 43.3336 29.7495 43.7529C29.7495 44.1722 29.5809 44.5743 29.281 44.8708C28.981 45.1673 28.5741 45.3339 28.1499 45.3339Z" fill="white"/>
<path d="M75.8779 27.0414V11.6758H79.3177V27.0414H75.8779Z" fill="#171D25"/>
<path d="M95.7946 21.6525L95.575 16.8268V11.6602H99.0566V27.0413H96.0821L88.361 17.2247L88.4917 22.2673V27.0413H84.9893V11.6757H87.9637L95.7946 21.6525Z" fill="#171D25"/>
<path d="M113.918 15.3812C113.056 14.4822 111.545 14.0895 110.327 14.0895C108.795 14.0895 107.551 14.725 107.551 15.779C107.551 17.1792 108.905 17.4427 110.902 17.6184C113.965 17.8819 116.872 19.0444 116.872 22.599C116.872 26.0194 113.678 27.5125 110.327 27.5332C107.64 27.5332 104.843 26.5257 103.531 24.3764L105.622 22.2477C106.204 22.931 106.931 23.4795 107.751 23.8545C108.572 24.2295 109.465 24.4217 110.369 24.4177C112.209 24.4177 113.474 23.6944 113.474 22.599C113.474 21.3022 112.429 20.7132 110.337 20.5324C107.055 20.2224 104.122 19.4112 104.169 15.7945C104.169 12.7462 107.117 11.1445 110.317 11.1445C112.711 11.1445 114.499 11.6612 116.104 13.5109L113.918 15.3812Z" fill="#171D25"/>
<path d="M124.834 14.7241H120.129V11.6758H133.02V14.7241H128.315V27.0414H124.875L124.834 14.7241Z" fill="#171D25"/>
<path d="M146.972 24.3982H138.99L137.86 27.0435H134.128L141.096 11.6934H144.881L151.839 27.0435H148.085L146.972 24.3982ZM142.983 15.1602L140.302 21.3602H145.649L142.983 15.1602Z" fill="#171D25"/>
<path d="M166.503 21.6525L166.283 16.8268V11.6602H169.765V27.0413H166.79L159.069 17.2247L159.2 22.2673V27.0413H155.697V11.6757H158.672L166.503 21.6525Z" fill="#171D25"/>
<path d="M178.814 14.7241H174.109V11.6758H187.001V14.7241H182.296V27.0414H178.856L178.814 14.7241Z" fill="#171D25"/>
<path d="M85.0574 38.7247C84.1896 37.8257 82.6841 37.4279 81.4609 37.4279C79.9292 37.4279 78.6903 38.0685 78.6903 39.1174C78.6903 40.5227 80.0442 40.7862 82.0411 40.9619C85.0992 41.2254 88.0058 42.3879 88.0058 45.9374C88.0058 49.3629 84.8117 50.8509 81.4609 50.8767C78.7791 50.8767 75.9824 49.8434 74.665 47.7147L76.7299 45.5912C77.3127 46.2737 78.0397 46.8216 78.8597 47.1965C79.6798 47.5714 80.573 47.7642 81.4765 47.7612C83.3219 47.7612 84.5869 47.0379 84.5869 45.9374C84.5869 44.6457 83.5414 44.0515 81.4504 43.8707C78.1675 43.5607 75.2401 42.7495 75.2819 39.1329C75.2819 36.0845 78.2355 34.457 81.4295 34.457C83.8237 34.457 85.6115 34.9737 87.2216 36.8285L85.0574 38.7247Z" fill="#171D25"/>
<path d="M96.0618 46.0245V50.3697H92.6064V35.0195H99.925C103.898 35.0195 105.874 37.5615 105.874 40.522C105.874 43.591 103.877 45.9832 99.925 46.0245H96.0618ZM96.0618 42.8884H99.925C101.593 42.8884 102.413 41.8137 102.413 40.5892C102.422 40.27 102.362 39.9527 102.238 39.6578C102.114 39.363 101.929 39.0972 101.694 38.8779C101.459 38.6585 101.181 38.4905 100.876 38.3848C100.571 38.2791 100.247 38.238 99.925 38.2642H96.0671L96.0618 42.8884Z" fill="#171D25"/>
<path d="M120.155 47.7399H112.188L111.059 50.3697H107.332L114.295 35.0195H118.069L125.017 50.3697H121.269L120.155 47.7399ZM116.182 38.4812L113.516 44.7122H118.848L116.182 38.4812Z" fill="#171D25"/>
<path d="M141.745 48.5043C140.954 49.2553 140.019 49.842 138.994 50.2298C137.97 50.6176 136.877 50.7986 135.781 50.7621C129.853 50.7621 127.5 46.9905 127.479 42.8003C127.479 38.8323 130.093 34.668 135.781 34.668C136.843 34.6693 137.894 34.8791 138.873 35.2854C139.852 35.6916 140.739 36.2861 141.484 37.0343L139.309 39.163C138.34 38.3099 137.078 37.8552 135.781 37.892C132.252 37.892 130.877 40.589 130.898 42.8261C130.919 45.0633 132.137 47.6053 135.781 47.6053C137.189 47.5829 138.543 47.0623 139.597 46.138L141.745 48.5043Z" fill="#171D25"/>
<path d="M157.831 50.3697H146.001V35.0195H157.502V38.1557H149.399V41.1162H157.052V44.118H149.399V47.218H157.831V50.3697Z" fill="#171D25"/>
<defs>
<linearGradient id="paint0_linear_1361_2368" x1="58.6688" y1="4.0145" x2="5.6676" y2="57.6403" gradientUnits="userSpaceOnUse">
<stop stop-color="#0064FA"/>
<stop offset="1" stop-color="#054AAD"/>
</linearGradient>
</defs>
</svg>
